<?xml version="1.0" encoding="utf-8" standalone="no"?>
<!DOCTYPE svg PUBLIC "-//W3C//DTD SVG 1.1//EN"
  "http://www.w3.org/Graphics/SVG/1.1/DTD/svg11.dtd">
<svg xmlns:xlink="http://www.w3.org/1999/xlink" width="796.20056pt" height="300.714375pt" viewBox="0 0 796.20056 300.714375" xmlns="http://www.w3.org/2000/svg" version="1.1">
 <metadata>
  <rdf:RDF xmlns:dc="http://purl.org/dc/elements/1.1/" xmlns:cc="http://creativecommons.org/ns#" xmlns:rdf="http://www.w3.org/1999/02/22-rdf-syntax-ns#">
   <cc:Work>
    <dc:type rdf:resource="http://purl.org/dc/dcmitype/StillImage"/>
    <dc:format>image/svg+xml</dc:format>
    <dc:creator>
     <cc:Agent>
      <dc:title>Matplotlib v3.10.3, https://matplotlib.org/</dc:title>
     </cc:Agent>
    </dc:creator>
   </cc:Work>
  </rdf:RDF>
 </metadata>
 <defs>
  <style type="text/css">*{stroke-linejoin: round; stroke-linecap: butt}</style>
 </defs>
 <g id="figure_1">
  <g id="patch_1">
   <path d="M -0 300.714375
L 796.20056 300.714375
L 796.20056 0
L -0 0
z
" style="fill: #ffffff"/>
  </g>
  <g id="axes_1">
   <g id="patch_2">
    <path d="M 107.565625 263.158125
L 347.565625 263.158125
L 347.565625 31.318125
L 107.565625 31.318125
z
" style="fill: #ffffff"/>
   </g>
   <g id="PolyCollection_1">
    <path d="M 295.394196 115.896792
L 295.394196 101.299458
L 302.354196 101.299458
L 302.354196 115.896792
z
" clip-path="url(#p89a589e6c3)" style="fill: #147d82"/>
   </g>
   <g id="PolyCollection_2">
    <path d="M 275.519911 115.896792
L 275.519911 101.299458
L 279.359911 101.299458
L 279.359911 115.896792
z
" clip-path="url(#p89a589e6c3)" style="fill: #147d82"/>
   </g>
   <g id="PolyCollection_3">
    <path d="M 129.154196 115.896792
L 129.154196 101.299458
L 134.491339 101.299458
L 134.491339 115.896792
z
" clip-path="url(#p89a589e6c3)" style="fill: #147d82"/>
   </g>
   <g id="PolyCollection_4">
    <path d="M 272.948482 115.896792
L 272.948482 101.299458
L 274.937054 101.299458
L 274.937054 115.896792
z
" clip-path="url(#p89a589e6c3)" style="fill: #147d82"/>
   </g>
   <g id="PolyCollection_5">
    <path d="M 129.154196 158.830125
L 129.154196 144.232792
L 134.491339 144.232792
L 134.491339 158.830125
z
" clip-path="url(#p89a589e6c3)" style="fill: #4676ad"/>
   </g>
   <g id="PolyCollection_6">
    <path d="M 238.377054 158.830125
L 238.377054 144.232792
L 241.131339 144.232792
L 241.131339 158.830125
z
" clip-path="url(#p89a589e6c3)" style="fill: #4676ad"/>
   </g>
   <g id="PolyCollection_7">
    <path d="M 275.519911 158.830125
L 275.519911 144.232792
L 279.359911 144.232792
L 279.359911 158.830125
z
" clip-path="url(#p89a589e6c3)" style="fill: #4676ad"/>
   </g>
   <g id="PolyCollection_8">
    <path d="M 295.394196 158.830125
L 295.394196 144.232792
L 302.354196 144.232792
L 302.354196 158.830125
z
" clip-path="url(#p89a589e6c3)" style="fill: #4676ad"/>
   </g>
   <g id="PolyCollection_9">
    <path d="M 121.588482 201.763458
L 121.588482 187.166125
L 347.565625 187.166125
L 347.565625 201.763458
z
" clip-path="url(#p89a589e6c3)" style="fill: #c08b35"/>
   </g>
   <g id="PolyCollection_10">
    <path d="M 289.771339 244.696792
L 289.771339 230.099458
L 309.668482 230.099458
L 309.668482 244.696792
z
" clip-path="url(#p89a589e6c3)" style="fill: #a55b76"/>
   </g>
   <g id="PolyCollection_11">
    <path d="M 236.102768 244.696792
L 236.102768 230.099458
L 242.159911 230.099458
L 242.159911 244.696792
z
" clip-path="url(#p89a589e6c3)" style="fill: #a55b76"/>
   </g>
   <g id="PolyCollection_12">
    <path d="M 271.577054 244.696792
L 271.577054 230.099458
L 286.605625 230.099458
L 286.605625 244.696792
z
" clip-path="url(#p89a589e6c3)" style="fill: #a55b76"/>
   </g>
   <g id="PolyCollection_13">
    <path d="M 128.537054 244.696792
L 128.537054 230.099458
L 134.354196 230.099458
L 134.354196 244.696792
z
" clip-path="url(#p89a589e6c3)" style="fill: #a55b76"/>
   </g>
   <g id="PolyCollection_14">
    <path d="M 325.691339 244.696792
L 325.691339 230.099458
L 330.457054 230.099458
L 330.457054 244.696792
z
" clip-path="url(#p89a589e6c3)" style="fill: #a55b76"/>
   </g>
   <g id="PolyCollection_15">
    <path d="M 192.571339 244.696792
L 192.571339 230.099458
L 198.331339 230.099458
L 198.331339 244.696792
z
" clip-path="url(#p89a589e6c3)" style="fill: #a55b76"/>
   </g>
   <g id="PolyCollection_16">
    <path d="M 335.177054 244.696792
L 335.177054 230.099458
L 340.937054 230.099458
L 340.937054 244.696792
z
" clip-path="url(#p89a589e6c3)" style="fill: #a55b76"/>
   </g>
   <g id="PolyCollection_17">
    <path d="M 129.462768 67.811458
L 129.462768 58.366125
L 132.239911 58.366125
L 132.239911 67.811458
z
" clip-path="url(#p89a589e6c3)" style="fill: #173a45"/>
   </g>
   <g id="PolyCollection_18">
    <path d="M 326.457054 67.811458
L 326.457054 58.366125
L 328.822768 58.366125
L 328.822768 67.811458
z
" clip-path="url(#p89a589e6c3)" style="fill: #173a45"/>
   </g>
   <g id="PolyCollection_19">
    <path d="M 295.314196 67.811458
L 295.314196 58.366125
L 304.022768 58.366125
L 304.022768 67.811458
z
" clip-path="url(#p89a589e6c3)" style="fill: #173a45"/>
   </g>
   <g id="matplotlib.axis_1">
    <g id="xtick_1">
     <g id="line2d_1">
      <path d="M 153.279911 263.158125
L 153.279911 31.318125
" clip-path="url(#p89a589e6c3)" style="fill: none; stroke: #b0b0b0; stroke-opacity: 0.12; stroke-width: 0.8; stroke-linecap: square"/>
     </g>
     <g id="line2d_2">
      <defs>
       <path id="mb6f8c60318" d="M 0 0
L 0 3.5
" style="stroke: #000000; stroke-width: 0.8"/>
      </defs>
      <g>
       <use xlink:href="#mb6f8c60318" x="153.279911" y="263.158125" style="stroke: #000000; stroke-width: 0.8"/>
      </g>
     </g>
     <g id="text_1">
      <text style="font-size: 10px; font-family: 'DejaVu Sans', 'Arial', 'Liberation Sans', sans-serif; text-anchor: middle" x="153.279911" y="277.756562" transform="rotate(-0 153.279911 277.756562)">15.250</text>
     </g>
    </g>
    <g id="xtick_2">
     <g id="line2d_3">
      <path d="M 210.422768 263.158125
L 210.422768 31.318125
" clip-path="url(#p89a589e6c3)" style="fill: none; stroke: #b0b0b0; stroke-opacity: 0.12; stroke-width: 0.8; stroke-linecap: square"/>
     </g>
     <g id="line2d_4">
      <g>
       <use xlink:href="#mb6f8c60318" x="210.422768" y="263.158125" style="stroke: #000000; stroke-width: 0.8"/>
      </g>
     </g>
     <g id="text_2">
      <text style="font-size: 10px; font-family: 'DejaVu Sans', 'Arial', 'Liberation Sans', sans-serif; text-anchor: middle" x="210.422768" y="277.756562" transform="rotate(-0 210.422768 277.756562)">15.255</text>
     </g>
    </g>
    <g id="xtick_3">
     <g id="line2d_5">
      <path d="M 267.565625 263.158125
L 267.565625 31.318125
" clip-path="url(#p89a589e6c3)" style="fill: none; stroke: #b0b0b0; stroke-opacity: 0.12; stroke-width: 0.8; stroke-linecap: square"/>
     </g>
     <g id="line2d_6">
      <g>
       <use xlink:href="#mb6f8c60318" x="267.565625" y="263.158125" style="stroke: #000000; stroke-width: 0.8"/>
      </g>
     </g>
     <g id="text_3">
      <text style="font-size: 10px; font-family: 'DejaVu Sans', 'Arial', 'Liberation Sans', sans-serif; text-anchor: middle" x="267.565625" y="277.756562" transform="rotate(-0 267.565625 277.756562)">15.260</text>
     </g>
    </g>
    <g id="xtick_4">
     <g id="line2d_7">
      <path d="M 324.708482 263.158125
L 324.708482 31.318125
" clip-path="url(#p89a589e6c3)" style="fill: none; stroke: #b0b0b0; stroke-opacity: 0.12; stroke-width: 0.8; stroke-linecap: square"/>
     </g>
     <g id="line2d_8">
      <g>
       <use xlink:href="#mb6f8c60318" x="324.708482" y="263.158125" style="stroke: #000000; stroke-width: 0.8"/>
      </g>
     </g>
     <g id="text_4">
      <text style="font-size: 10px; font-family: 'DejaVu Sans', 'Arial', 'Liberation Sans', sans-serif; text-anchor: middle" x="324.708482" y="277.756562" transform="rotate(-0 324.708482 277.756562)">15.265</text>
     </g>
    </g>
    <g id="text_5">
     <text style="font-size: 10px; font-family: 'DejaVu Sans', 'Arial', 'Liberation Sans', sans-serif; text-anchor: middle" x="227.565625" y="291.434687" transform="rotate(-0 227.565625 291.434687)">GRCh38 chr17 position (Mb) →</text>
    </g>
   </g>
   <g id="matplotlib.axis_2">
    <g id="ytick_1">
     <g id="line2d_9"/>
     <g id="text_6">
      <text style="font-size: 10px; font-family: 'DejaVu Sans', 'Arial', 'Liberation Sans', sans-serif; text-anchor: end" x="104.065625" y="69.46401" transform="rotate(-0 104.065625 69.46401)">Reference intervals</text>
     </g>
    </g>
    <g id="ytick_2">
     <g id="line2d_10"/>
     <g id="text_7">
      <text style="font-size: 10px; font-family: 'DejaVu Sans', 'Arial', 'Liberation Sans', sans-serif; text-anchor: end" x="104.065625" y="112.397344" transform="rotate(-0 104.065625 112.397344)">ATAC · IDR</text>
     </g>
    </g>
    <g id="ytick_3">
     <g id="line2d_11"/>
     <g id="text_8">
      <text style="font-size: 10px; font-family: 'DejaVu Sans', 'Arial', 'Liberation Sans', sans-serif; text-anchor: end" x="104.065625" y="155.330677" transform="rotate(-0 104.065625 155.330677)">ATAC · broad</text>
     </g>
    </g>
    <g id="ytick_4">
     <g id="line2d_12"/>
     <g id="text_9">
      <text style="font-size: 10px; font-family: 'DejaVu Sans', 'Arial', 'Liberation Sans', sans-serif; text-anchor: end" x="104.065625" y="198.26401" transform="rotate(-0 104.065625 198.26401)">Bulk H3K27ac</text>
     </g>
    </g>
    <g id="ytick_5">
     <g id="line2d_13"/>
     <g id="text_10">
      <text style="font-size: 10px; font-family: 'DejaVu Sans', 'Arial', 'Liberation Sans', sans-serif; text-anchor: end" x="104.065625" y="241.197344" transform="rotate(-0 104.065625 241.197344)">Bulk EP300</text>
     </g>
    </g>
   </g>
   <g id="patch_3">
    <path d="M 107.565625 263.158125
L 347.565625 263.158125
" style="fill: none; stroke: #000000; stroke-width: 0.8; stroke-linejoin: miter; stroke-linecap: square"/>
   </g>
   <g id="text_11">
    <text style="font-size: 10px; font-family: 'DejaVu Sans', 'Arial', 'Liberation Sans', sans-serif; text-anchor: middle; fill: #173a45" x="130.851339" y="50.208792" transform="rotate(-0 130.851339 50.208792)">Intronic</text>
   </g>
   <g id="text_12">
    <text style="font-size: 10px; font-family: 'DejaVu Sans', 'Arial', 'Liberation Sans', sans-serif; text-anchor: middle; fill: #173a45" x="327.639911" y="50.208792" transform="rotate(-0 327.639911 50.208792)">P1</text>
   </g>
   <g id="text_13">
    <text style="font-size: 10px; font-family: 'DejaVu Sans', 'Arial', 'Liberation Sans', sans-serif; text-anchor: middle; fill: #173a45" x="299.668482" y="60.512792" transform="rotate(-0 299.668482 60.512792)">P2</text>
   </g>
   <g id="text_14">
    <text style="font-weight: 700; font-size: 12px; font-family: 'DejaVu Sans', 'Arial', 'Liberation Sans', sans-serif; text-anchor: start; fill: #173a45" x="107.565625" y="16.318125" transform="rotate(-0 107.565625 16.318125)">Promoters and intronic element</text>
   </g>
  </g>
  <g id="axes_2">
   <g id="patch_4">
    <path d="M 477.165625 263.158125
L 777.165625 263.158125
L 777.165625 31.318125
L 477.165625 31.318125
z
" style="fill: #ffffff"/>
   </g>
   <g id="PolyCollection_20">
    <path d="M 743.112795 115.896792
L 743.112795 101.299458
L 745.342983 101.299458
L 745.342983 115.896792
z
" clip-path="url(#p2c3092a03d)" style="fill: #147d82"/>
   </g>
   <g id="PolyCollection_21">
    <path d="M 529.371285 115.896792
L 529.371285 101.299458
L 533.64487 101.299458
L 533.64487 115.896792
z
" clip-path="url(#p2c3092a03d)" style="fill: #147d82"/>
   </g>
   <g id="PolyCollection_22">
    <path d="M 529.371285 158.830125
L 529.371285 144.232792
L 533.64487 144.232792
L 533.64487 158.830125
z
" clip-path="url(#p2c3092a03d)" style="fill: #4676ad"/>
   </g>
   <g id="PolyCollection_23">
    <path d="M 600.590153 158.830125
L 600.590153 144.232792
L 601.750531 144.232792
L 601.750531 158.830125
z
" clip-path="url(#p2c3092a03d)" style="fill: #4676ad"/>
   </g>
   <g id="PolyCollection_24">
    <path d="M 692.367512 158.830125
L 692.367512 144.232792
L 695.299587 144.232792
L 695.299587 158.830125
z
" clip-path="url(#p2c3092a03d)" style="fill: #4676ad"/>
   </g>
   <g id="PolyCollection_25">
    <path d="M 713.203361 158.830125
L 713.203361 144.232792
L 715.43355 144.232792
L 715.43355 158.830125
z
" clip-path="url(#p2c3092a03d)" style="fill: #4676ad"/>
   </g>
   <g id="PolyCollection_26">
    <path d="M 743.112795 158.830125
L 743.112795 144.232792
L 745.342983 144.232792
L 745.342983 158.830125
z
" clip-path="url(#p2c3092a03d)" style="fill: #4676ad"/>
   </g>
   <g id="PolyCollection_27">
    <path d="M 764.78638 158.830125
L 764.78638 144.232792
L 765.975059 144.232792
L 765.975059 158.830125
z
" clip-path="url(#p2c3092a03d)" style="fill: #4676ad"/>
   </g>
   <g id="PolyCollection_28">
    <path d="M 510.799587 201.763458
L 510.799587 187.166125
L 512.910908 187.166125
L 512.910908 201.763458
z
" clip-path="url(#p2c3092a03d)" style="fill: #c08b35"/>
   </g>
   <g id="PolyCollection_29">
    <path d="M 513.861851 201.763458
L 513.861851 187.166125
L 524.293927 187.166125
L 524.293927 201.763458
z
" clip-path="url(#p2c3092a03d)" style="fill: #c08b35"/>
   </g>
   <g id="PolyCollection_30">
    <path d="M 524.820342 201.763458
L 524.820342 187.166125
L 542.480719 187.166125
L 542.480719 201.763458
z
" clip-path="url(#p2c3092a03d)" style="fill: #c08b35"/>
   </g>
   <g id="PolyCollection_31">
    <path d="M 543.3977 201.763458
L 543.3977 187.166125
L 549.941097 187.166125
L 549.941097 201.763458
z
" clip-path="url(#p2c3092a03d)" style="fill: #c08b35"/>
   </g>
   <g id="PolyCollection_32">
    <path d="M 550.484493 201.763458
L 550.484493 187.166125
L 552.465625 187.166125
L 552.465625 201.763458
z
" clip-path="url(#p2c3092a03d)" style="fill: #c08b35"/>
   </g>
   <g id="PolyCollection_33">
    <path d="M 555.912795 201.763458
L 555.912795 187.166125
L 558.199587 187.166125
L 558.199587 201.763458
z
" clip-path="url(#p2c3092a03d)" style="fill: #c08b35"/>
   </g>
   <g id="PolyCollection_34">
    <path d="M 559.74487 201.763458
L 559.74487 187.166125
L 561.776946 187.166125
L 561.776946 201.763458
z
" clip-path="url(#p2c3092a03d)" style="fill: #c08b35"/>
   </g>
   <g id="PolyCollection_35">
    <path d="M 562.575059 201.763458
L 562.575059 187.166125
L 573.675059 187.166125
L 573.675059 201.763458
z
" clip-path="url(#p2c3092a03d)" style="fill: #c08b35"/>
   </g>
   <g id="PolyCollection_36">
    <path d="M 590.93355 201.763458
L 590.93355 187.166125
L 599.090153 187.166125
L 599.090153 201.763458
z
" clip-path="url(#p2c3092a03d)" style="fill: #c08b35"/>
   </g>
   <g id="PolyCollection_37">
    <path d="M 603.114682 201.763458
L 603.114682 187.166125
L 604.801474 187.166125
L 604.801474 201.763458
z
" clip-path="url(#p2c3092a03d)" style="fill: #c08b35"/>
   </g>
   <g id="PolyCollection_38">
    <path d="M 614.718455 201.763458
L 614.718455 187.166125
L 616.43355 187.166125
L 616.43355 201.763458
z
" clip-path="url(#p2c3092a03d)" style="fill: #c08b35"/>
   </g>
   <g id="PolyCollection_39">
    <path d="M 650.095814 201.763458
L 650.095814 187.166125
L 657.431663 187.166125
L 657.431663 201.763458
z
" clip-path="url(#p2c3092a03d)" style="fill: #c08b35"/>
   </g>
   <g id="PolyCollection_40">
    <path d="M 672.963738 201.763458
L 672.963738 187.166125
L 701.226002 187.166125
L 701.226002 201.763458
z
" clip-path="url(#p2c3092a03d)" style="fill: #c08b35"/>
   </g>
   <g id="PolyCollection_41">
    <path d="M 704.820342 201.763458
L 704.820342 187.166125
L 745.58638 187.166125
L 745.58638 201.763458
z
" clip-path="url(#p2c3092a03d)" style="fill: #c08b35"/>
   </g>
   <g id="PolyCollection_42">
    <path d="M 757.2977 201.763458
L 757.2977 187.166125
L 769.931663 187.166125
L 769.931663 201.763458
z
" clip-path="url(#p2c3092a03d)" style="fill: #c08b35"/>
   </g>
   <g id="PolyCollection_43">
    <path d="M 712.524116 244.696792
L 712.524116 230.099458
L 716.441097 230.099458
L 716.441097 244.696792
z
" clip-path="url(#p2c3092a03d)" style="fill: #a55b76"/>
   </g>
   <g id="PolyCollection_44">
    <path d="M 530.061851 244.696792
L 530.061851 230.099458
L 534.069399 230.099458
L 534.069399 244.696792
z
" clip-path="url(#p2c3092a03d)" style="fill: #a55b76"/>
   </g>
   <g id="PolyCollection_45">
    <path d="M 722.542983 244.696792
L 722.542983 230.099458
L 725.78638 230.099458
L 725.78638 244.696792
z
" clip-path="url(#p2c3092a03d)" style="fill: #a55b76"/>
   </g>
   <g id="PolyCollection_46">
    <path d="M 568.309021 244.696792
L 568.309021 230.099458
L 570.482606 230.099458
L 570.482606 244.696792
z
" clip-path="url(#p2c3092a03d)" style="fill: #a55b76"/>
   </g>
   <g id="PolyCollection_47">
    <path d="M 742.858078 244.696792
L 742.858078 230.099458
L 745.342983 230.099458
L 745.342983 244.696792
z
" clip-path="url(#p2c3092a03d)" style="fill: #a55b76"/>
   </g>
   <g id="PolyCollection_48">
    <path d="M 653.63921 244.696792
L 653.63921 230.099458
L 656.49204 230.099458
L 656.49204 244.696792
z
" clip-path="url(#p2c3092a03d)" style="fill: #a55b76"/>
   </g>
   <g id="PolyCollection_49">
    <path d="M 713.837323 67.811458
L 713.837323 58.366125
L 715.512795 58.366125
L 715.512795 67.811458
z
" clip-path="url(#p2c3092a03d)" style="fill: #173a45"/>
   </g>
   <g id="PolyCollection_50">
    <path d="M 692.090153 67.811458
L 692.090153 58.366125
L 694.337323 58.366125
L 694.337323 67.811458
z
" clip-path="url(#p2c3092a03d)" style="fill: #173a45"/>
   </g>
   <g id="PolyCollection_51">
    <path d="M 531.759965 67.811458
L 531.759965 58.366125
L 534.075059 58.366125
L 534.075059 67.811458
z
" clip-path="url(#p2c3092a03d)" style="fill: #173a45"/>
   </g>
   <g id="matplotlib.axis_3">
    <g id="xtick_5">
     <g id="line2d_14">
      <path d="M 488.48638 263.158125
L 488.48638 31.318125
" clip-path="url(#p2c3092a03d)" style="fill: none; stroke: #b0b0b0; stroke-opacity: 0.12; stroke-width: 0.8; stroke-linecap: square"/>
     </g>
     <g id="line2d_15">
      <g>
       <use xlink:href="#mb6f8c60318" x="488.48638" y="263.158125" style="stroke: #000000; stroke-width: 0.8"/>
      </g>
     </g>
     <g id="text_15">
      <text style="font-size: 10px; font-family: 'DejaVu Sans', 'Arial', 'Liberation Sans', sans-serif; text-anchor: middle" x="488.48638" y="277.756562" transform="rotate(-0 488.48638 277.756562)">15.370</text>
     </g>
    </g>
    <g id="xtick_6">
     <g id="line2d_16">
      <path d="M 545.090153 263.158125
L 545.090153 31.318125
" clip-path="url(#p2c3092a03d)" style="fill: none; stroke: #b0b0b0; stroke-opacity: 0.12; stroke-width: 0.8; stroke-linecap: square"/>
     </g>
     <g id="line2d_17">
      <g>
       <use xlink:href="#mb6f8c60318" x="545.090153" y="263.158125" style="stroke: #000000; stroke-width: 0.8"/>
      </g>
     </g>
     <g id="text_16">
      <text style="font-size: 10px; font-family: 'DejaVu Sans', 'Arial', 'Liberation Sans', sans-serif; text-anchor: middle" x="545.090153" y="277.756562" transform="rotate(-0 545.090153 277.756562)">15.380</text>
     </g>
    </g>
    <g id="xtick_7">
     <g id="line2d_18">
      <path d="M 601.693927 263.158125
L 601.693927 31.318125
" clip-path="url(#p2c3092a03d)" style="fill: none; stroke: #b0b0b0; stroke-opacity: 0.12; stroke-width: 0.8; stroke-linecap: square"/>
     </g>
     <g id="line2d_19">
      <g>
       <use xlink:href="#mb6f8c60318" x="601.693927" y="263.158125" style="stroke: #000000; stroke-width: 0.8"/>
      </g>
     </g>
     <g id="text_17">
      <text style="font-size: 10px; font-family: 'DejaVu Sans', 'Arial', 'Liberation Sans', sans-serif; text-anchor: middle" x="601.693927" y="277.756562" transform="rotate(-0 601.693927 277.756562)">15.390</text>
     </g>
    </g>
    <g id="xtick_8">
     <g id="line2d_20">
      <path d="M 658.2977 263.158125
L 658.2977 31.318125
" clip-path="url(#p2c3092a03d)" style="fill: none; stroke: #b0b0b0; stroke-opacity: 0.12; stroke-width: 0.8; stroke-linecap: square"/>
     </g>
     <g id="line2d_21">
      <g>
       <use xlink:href="#mb6f8c60318" x="658.2977" y="263.158125" style="stroke: #000000; stroke-width: 0.8"/>
      </g>
     </g>
     <g id="text_18">
      <text style="font-size: 10px; font-family: 'DejaVu Sans', 'Arial', 'Liberation Sans', sans-serif; text-anchor: middle" x="658.2977" y="277.756562" transform="rotate(-0 658.2977 277.756562)">15.400</text>
     </g>
    </g>
    <g id="xtick_9">
     <g id="line2d_22">
      <path d="M 714.901474 263.158125
L 714.901474 31.318125
" clip-path="url(#p2c3092a03d)" style="fill: none; stroke: #b0b0b0; stroke-opacity: 0.12; stroke-width: 0.8; stroke-linecap: square"/>
     </g>
     <g id="line2d_23">
      <g>
       <use xlink:href="#mb6f8c60318" x="714.901474" y="263.158125" style="stroke: #000000; stroke-width: 0.8"/>
      </g>
     </g>
     <g id="text_19">
      <text style="font-size: 10px; font-family: 'DejaVu Sans', 'Arial', 'Liberation Sans', sans-serif; text-anchor: middle" x="714.901474" y="277.756562" transform="rotate(-0 714.901474 277.756562)">15.410</text>
     </g>
    </g>
    <g id="xtick_10">
     <g id="line2d_24">
      <path d="M 771.505248 263.158125
L 771.505248 31.318125
" clip-path="url(#p2c3092a03d)" style="fill: none; stroke: #b0b0b0; stroke-opacity: 0.12; stroke-width: 0.8; stroke-linecap: square"/>
     </g>
     <g id="line2d_25">
      <g>
       <use xlink:href="#mb6f8c60318" x="771.505248" y="263.158125" style="stroke: #000000; stroke-width: 0.8"/>
      </g>
     </g>
     <g id="text_20">
      <text style="font-size: 10px; font-family: 'DejaVu Sans', 'Arial', 'Liberation Sans', sans-serif; text-anchor: middle" x="771.505248" y="277.756562" transform="rotate(-0 771.505248 277.756562)">15.420</text>
     </g>
    </g>
    <g id="text_21">
     <text style="font-size: 10px; font-family: 'DejaVu Sans', 'Arial', 'Liberation Sans', sans-serif; text-anchor: middle" x="627.165625" y="291.434687" transform="rotate(-0 627.165625 291.434687)">GRCh38 chr17 position (Mb) →</text>
    </g>
   </g>
   <g id="matplotlib.axis_4">
    <g id="ytick_6">
     <g id="line2d_26"/>
     <g id="text_22">
      <text style="font-size: 10px; font-family: 'DejaVu Sans', 'Arial', 'Liberation Sans', sans-serif; text-anchor: end" x="473.665625" y="69.46401" transform="rotate(-0 473.665625 69.46401)">Reference intervals</text>
     </g>
    </g>
    <g id="ytick_7">
     <g id="line2d_27"/>
     <g id="text_23">
      <text style="font-size: 10px; font-family: 'DejaVu Sans', 'Arial', 'Liberation Sans', sans-serif; text-anchor: end" x="473.665625" y="112.397344" transform="rotate(-0 473.665625 112.397344)">ATAC · IDR</text>
     </g>
    </g>
    <g id="ytick_8">
     <g id="line2d_28"/>
     <g id="text_24">
      <text style="font-size: 10px; font-family: 'DejaVu Sans', 'Arial', 'Liberation Sans', sans-serif; text-anchor: end" x="473.665625" y="155.330677" transform="rotate(-0 473.665625 155.330677)">ATAC · broad</text>
     </g>
    </g>
    <g id="ytick_9">
     <g id="line2d_29"/>
     <g id="text_25">
      <text style="font-size: 10px; font-family: 'DejaVu Sans', 'Arial', 'Liberation Sans', sans-serif; text-anchor: end" x="473.665625" y="198.26401" transform="rotate(-0 473.665625 198.26401)">Bulk H3K27ac</text>
     </g>
    </g>
    <g id="ytick_10">
     <g id="line2d_30"/>
     <g id="text_26">
      <text style="font-size: 10px; font-family: 'DejaVu Sans', 'Arial', 'Liberation Sans', sans-serif; text-anchor: end" x="473.665625" y="241.197344" transform="rotate(-0 473.665625 241.197344)">Bulk EP300</text>
     </g>
    </g>
   </g>
   <g id="patch_5">
    <path d="M 477.165625 263.158125
L 777.165625 263.158125
" style="fill: none; stroke: #000000; stroke-width: 0.8; stroke-linejoin: miter; stroke-linecap: square"/>
   </g>
   <g id="text_27">
    <text style="font-size: 10px; font-family: 'DejaVu Sans', 'Arial', 'Liberation Sans', sans-serif; text-anchor: middle; fill: #173a45" x="714.675059" y="50.208792" transform="rotate(-0 714.675059 50.208792)">A</text>
   </g>
   <g id="text_28">
    <text style="font-size: 10px; font-family: 'DejaVu Sans', 'Arial', 'Liberation Sans', sans-serif; text-anchor: middle; fill: #173a45" x="693.213738" y="50.208792" transform="rotate(-0 693.213738 50.208792)">B</text>
   </g>
   <g id="text_29">
    <text style="font-size: 10px; font-family: 'DejaVu Sans', 'Arial', 'Liberation Sans', sans-serif; text-anchor: middle; fill: #173a45" x="532.917512" y="50.208792" transform="rotate(-0 532.917512 50.208792)">C</text>
   </g>
   <g id="text_30">
    <text style="font-weight: 700; font-size: 12px; font-family: 'DejaVu Sans', 'Arial', 'Liberation Sans', sans-serif; text-anchor: start; fill: #173a45" x="477.165625" y="16.318125" transform="rotate(-0 477.165625 16.318125)">Distal regulatory neighborhood</text>
   </g>
  </g>
 </g>
 <defs>
  <clipPath id="p89a589e6c3">
   <rect x="107.565625" y="31.318125" width="240" height="231.84"/>
  </clipPath>
  <clipPath id="p2c3092a03d">
   <rect x="477.165625" y="31.318125" width="300" height="231.84"/>
  </clipPath>
 </defs>
</svg>
